<svg width="50" height="50" viewBox="0 0 50 50" fill="none" xmlns="http://www.w3.org/2000/svg">
<path d="M25 3.125C12.9199 3.125 3.125 12.9199 3.125 25C3.125 37.0801 12.9199 46.875 25 46.875C37.0801 46.875 46.875 37.0801 46.875 25C46.875 12.9199 37.0801 3.125 25 3.125ZM25 43.1641C14.9707 43.1641 6.83594 35.0293 6.83594 25C6.83594 14.9707 14.9707 6.83594 25 6.83594C35.0293 6.83594 43.1641 14.9707 43.1641 25C43.1641 35.0293 35.0293 43.1641 25 43.1641Z" fill="white"/>
<path d="M30.4492 15.4639C28.9844 14.1797 27.0508 13.4766 25 13.4766C22.9492 13.4766 21.0156 14.1846 19.5508 15.4639C18.0273 16.7969 17.1875 18.5889 17.1875 20.5078V20.8789C17.1875 21.0938 17.3633 21.2695 17.5781 21.2695H19.9219C20.1367 21.2695 20.3125 21.0938 20.3125 20.8789V20.5078C20.3125 18.3545 22.417 16.6016 25 16.6016C27.583 16.6016 29.6875 18.3545 29.6875 20.5078C29.6875 22.0264 28.6133 23.418 26.9482 24.0576C25.9131 24.4531 25.0342 25.1465 24.4043 26.0547C23.7646 26.9824 23.4326 28.0957 23.4326 29.2236V30.2734C23.4326 30.4883 23.6084 30.6641 23.8232 30.6641H26.167C26.3818 30.6641 26.5576 30.4883 26.5576 30.2734V29.165C26.5601 28.691 26.7054 28.2288 26.9746 27.8386C27.2437 27.4483 27.6242 27.1483 28.0664 26.9775C30.9473 25.8691 32.8076 23.3301 32.8076 20.5078C32.8125 18.5889 31.9727 16.7969 30.4492 15.4639ZM23.0469 35.7422C23.0469 36.2602 23.2527 36.757 23.6189 37.1233C23.9852 37.4895 24.482 37.6953 25 37.6953C25.518 37.6953 26.0148 37.4895 26.3811 37.1233C26.7474 36.757 26.9531 36.2602 26.9531 35.7422C26.9531 35.2242 26.7474 34.7274 26.3811 34.3611C26.0148 33.9948 25.518 33.7891 25 33.7891C24.482 33.7891 23.9852 33.9948 23.6189 34.3611C23.2527 34.7274 23.0469 35.2242 23.0469 35.7422Z" fill="white"/>
</svg>
