<svg width="50" height="50" viewBox="0 0 50 50" fill="none" xmlns="http://www.w3.org/2000/svg">
<path d="M43.2422 11.2402L38.042 6.04492C37.6752 5.67648 37.2392 5.38415 36.759 5.18472C36.2789 4.98529 35.7641 4.88269 35.2441 4.88281C34.1846 4.88281 33.1885 5.29785 32.4414 6.04492L26.8457 11.6406C26.4773 12.0075 26.1849 12.4435 25.9855 12.9236C25.7861 13.4037 25.6835 13.9186 25.6836 14.4385C25.6836 15.498 26.0986 16.4941 26.8457 17.2412L30.9375 21.333C29.9797 23.4441 28.6481 25.3647 27.0068 27.002C25.3697 28.6472 23.4494 29.9837 21.3379 30.9473L17.2461 26.8555C16.8793 26.487 16.4433 26.1947 15.9631 25.9953C15.483 25.7958 14.9682 25.6932 14.4482 25.6934C13.3887 25.6934 12.3926 26.1084 11.6455 26.8555L6.04492 32.4463C5.67603 32.8138 5.38345 33.2506 5.18401 33.7316C4.98457 34.2126 4.88221 34.7283 4.88282 35.249C4.88282 36.3086 5.29785 37.3047 6.04492 38.0518L11.2354 43.2422C12.4268 44.4385 14.0723 45.1172 15.7617 45.1172C16.1182 45.1172 16.46 45.0879 16.7969 45.0293C23.3789 43.9453 29.9072 40.4443 35.1758 35.1807C40.4395 29.9219 43.9356 23.3984 45.0342 16.7969C45.3662 14.7803 44.6973 12.7051 43.2422 11.2402Z" fill="white"/>
</svg>
