<svg width="72" height="81" viewBox="0 0 72 81" fill="none" xmlns="http://www.w3.org/2000/svg">
<path d="M71 1L64.4365 72.0929L35.9995 79.7497L7.56214 72.0929L1 1H71ZM57.7742 15.4556H35.974H13.7876L14.8486 24.0408H35.974H37.1606L35.974 24.5347L15.6207 33.0117L16.2957 41.4034L35.974 41.4672L46.5209 41.5006L45.8458 52.6899L35.9738 55.4693V55.4605L35.8929 55.483L26.3591 53.0763L25.7805 46.1305H25.7489H16.9058H16.8747L18.0322 59.5392L35.9741 64.845V64.8355L36.0065 64.845L53.8522 59.6358L56.1671 33.0117H35.9741H35.9243L35.9741 32.9901L56.9068 24.0408L57.7742 15.4556Z" fill="#FFF700" stroke="#FFF700" stroke-width="1.5625"/>
</svg>
