<svg width="30" height="30" viewBox="0 0 30 30" fill="none" xmlns="http://www.w3.org/2000/svg">
<path fill-rule="evenodd" clip-rule="evenodd" d="M0 6C0 2.68629 2.68629 0 6 0H24C27.3137 0 30 2.68629 30 6V24C30 27.3137 27.3137 30 24 30H6C2.68629 30 0 27.3137 0 24V6ZM6 3C4.34314 3 3 4.34314 3 6V24C3 25.6569 4.34314 27 6 27H24C25.6569 27 27 25.6569 27 24V6C27 4.34314 25.6569 3 24 3H6ZM15 10.5C12.5146 10.5 10.5 12.5146 10.5 15C10.5 17.4854 12.5146 19.5 15 19.5C17.4854 19.5 19.5 17.4854 19.5 15C19.5 12.5146 17.4854 10.5 15 10.5ZM7.5 15C7.5 10.8579 10.8579 7.5 15 7.5C19.1421 7.5 22.5 10.8579 22.5 15C22.5 19.1421 19.1421 22.5 15 22.5C10.8579 22.5 7.5 19.1421 7.5 15ZM23.25 9C24.4926 9 25.5 7.99265 25.5 6.75C25.5 5.50735 24.4926 4.5 23.25 4.5C22.0074 4.5 21 5.50735 21 6.75C21 7.99265 22.0074 9 23.25 9Z" fill="black"/>
</svg>
