<svg width="70" height="70" viewBox="0 0 70 70" fill="none" xmlns="http://www.w3.org/2000/svg">
<path d="M0 0H70V70H0V0Z" fill="#F7DF1E"/>
<path d="M18.4056 58.4971L23.7625 55.2552C24.7959 57.0875 25.736 58.6378 27.991 58.6378C30.1526 58.6378 31.5153 57.7923 31.5153 54.5034V32.1367H38.0936V54.5964C38.0936 61.4097 34.0998 64.5109 28.273 64.5109C23.0107 64.5109 19.956 61.7855 18.4055 58.4965" fill="black"/>
<path d="M41.6667 57.7922L47.0229 54.691C48.4329 56.9936 50.2655 58.6851 53.5075 58.6851C56.2331 58.6851 57.9712 57.3223 57.9712 55.4427C57.9712 53.1873 56.1858 52.3884 53.1785 51.0732L51.5344 50.3678C46.7882 48.3477 43.6399 45.8104 43.6399 40.4536C43.6399 35.5198 47.3989 31.7606 53.2727 31.7606C57.4547 31.7606 60.4619 33.2174 62.6231 37.0235L57.5014 40.3125C56.3736 38.2922 55.1522 37.4935 53.2728 37.4935C51.3462 37.4935 50.1245 38.7152 50.1245 40.3125C50.1245 42.2861 51.3462 43.0851 54.1652 44.3068L55.8097 45.0116C61.4014 47.4082 64.5497 49.8513 64.5497 55.3487C64.5497 61.2696 59.8979 64.5115 53.6486 64.5115C47.5401 64.5115 43.5929 61.5984 41.6667 57.7922Z" fill="black"/>
</svg>
