<svg width="30" height="28" viewBox="0 0 30 28" fill="none" xmlns="http://www.w3.org/2000/svg">
<path d="M0.974186 27.4042H4.87424C5.4123 27.4042 5.84843 26.968 5.84843 26.4299V9.38288C5.84843 8.84477 5.4123 8.40869 4.87424 8.40869H0.974186C0.436077 8.40869 0 8.84477 0 9.38288V26.4299C0 26.9679 0.436077 27.4042 0.974186 27.4042Z" fill="black"/>
<path d="M0.974186 5.41164H4.87424C5.4123 5.41164 5.84843 4.97551 5.84843 4.43746V0.974186C5.84843 0.436132 5.4123 0 4.87424 0H0.974186C0.436077 0 0 0.436132 0 0.974186V4.43746C0 4.97551 0.436077 5.41164 0.974186 5.41164Z" fill="black"/>
<path d="M28.5326 10.386C27.9846 9.66461 27.1765 9.07136 26.108 8.60636C25.0395 8.14168 23.86 7.90918 22.5696 7.90918C19.95 7.90918 17.7302 8.90893 15.9104 10.9088C15.5483 11.3067 15.2851 11.2197 15.2851 10.6816V9.38294C15.2851 8.84483 14.8489 8.40876 14.3108 8.40876H10.827C10.2889 8.40876 9.85278 8.84483 9.85278 9.38294V26.43C9.85278 26.9681 10.2889 27.4042 10.827 27.4042H14.727C15.2651 27.4042 15.7012 26.9681 15.7012 26.43V20.5015C15.7012 18.0317 15.8504 16.3387 16.1486 15.423C16.4468 14.5073 16.9985 13.7719 17.8033 13.2169C18.6081 12.6619 19.5169 12.3842 20.5299 12.3842C21.3208 12.3842 21.9973 12.5785 22.5593 12.9671C23.1213 13.3557 23.5272 13.9001 23.777 14.6009C24.0268 15.3017 24.1517 16.8453 24.1517 19.232V26.43C24.1517 26.968 24.5877 27.4042 25.1258 27.4042H29.0259C29.5639 27.4042 30 26.968 30 26.43V16.7759C30 15.0693 29.8924 13.758 29.6776 12.8423C29.4627 11.9265 29.081 11.1078 28.5326 10.386Z" fill="black"/>
</svg>
