<svg width="40" height="40" viewBox="0 0 40 40" fill="none" xmlns="http://www.w3.org/2000/svg">
<path d="M36.25 17.3438H32.0312V12.9062C32.0312 12.2148 31.4727 11.6562 30.7812 11.6562H18.4766L13.8945 7.27344C13.8362 7.21886 13.7595 7.18818 13.6797 7.1875H3.75C3.05859 7.1875 2.5 7.74609 2.5 8.4375V31.5625C2.5 32.2539 3.05859 32.8125 3.75 32.8125H31.0156C31.5234 32.8125 31.9844 32.5039 32.1758 32.0312L37.4102 19.0625C37.4688 18.9141 37.5 18.7539 37.5 18.5938C37.5 17.9023 36.9414 17.3438 36.25 17.3438ZM29.2188 17.3438H9.29688C8.78906 17.3438 8.32813 17.6523 8.13672 18.125L5.3125 25.125V10H12.6758L17.3477 14.4687H29.2188V17.3438Z" fill="white"/>
</svg>
