<svg width="70" height="61" viewBox="0 0 70 61" fill="none" xmlns="http://www.w3.org/2000/svg">
<path fill-rule="evenodd" clip-rule="evenodd" d="M55.3009 19.0253C56.6209 13.8245 58.2801 4.18012 52.4309 0.910371C46.609 -2.34512 39.0329 3.893 35.0324 7.63742C31.0436 3.93031 23.2547 -2.28114 17.4105 0.99899C11.5909 4.2654 13.3855 13.7499 14.7348 18.9833C9.30606 20.4783 0 23.6983 0 30.2771C0 36.8373 9.29637 40.3405 14.693 41.8341C13.3387 47.0965 11.6339 56.4454 17.461 59.7046C23.327 62.9841 31.0917 56.9205 35.1293 53.1351C39.1554 56.9016 46.6587 63.0049 52.4818 59.7366C58.3231 56.458 56.8017 46.9429 55.4524 41.6792C60.6837 40.1823 70 36.7554 70 30.2771C70 23.7615 60.644 20.5154 55.3009 19.0253ZM54.6378 38.8897C53.7518 36.1704 52.556 33.2787 51.0932 30.2916C52.4895 27.3749 53.6389 24.5205 54.5001 21.8188C58.4171 22.9199 67.0098 25.4364 67.0098 30.2771C67.0098 35.1633 58.7641 37.7036 54.6378 38.8897ZM50.9833 57.2273C46.6387 59.6657 40.1849 53.8291 37.2115 51.0554C39.1841 48.9636 41.1553 46.5318 43.0792 43.8314C46.4634 43.5405 49.6603 43.0645 52.5597 42.4146C53.5094 46.1379 55.3471 54.778 50.9833 57.2273ZM18.9551 57.1926C14.61 54.7633 16.596 46.4207 17.5923 42.5444C20.4595 43.1594 23.6334 43.6018 27.0256 43.8685C28.962 46.5108 30.9904 48.9396 33.0344 51.0666C30.509 53.4352 23.3205 59.633 18.9551 57.1926ZM2.99014 30.2771C2.99014 25.3727 11.5315 22.8744 15.5378 21.7761C16.4139 24.5385 17.5629 27.4269 18.9495 30.3478C17.5449 33.3121 16.3795 36.2462 15.4953 39.0413C11.6753 37.9811 2.99014 35.1846 2.99014 30.2771ZM18.9086 3.50826C23.2715 1.0597 30.041 7.02293 32.9371 9.70697C30.9036 11.8243 28.8939 14.2347 26.974 16.8618C23.6819 17.1577 20.5304 17.6328 17.6332 18.2693C16.5462 14.0483 14.5505 5.95417 18.9086 3.50826ZM45.2184 20.0132C47.4518 20.2865 49.5917 20.65 51.601 21.0947C50.9978 22.9693 50.246 24.9296 49.3605 26.939C48.0769 24.5777 46.6991 22.2637 45.2184 20.0132ZM35.0334 11.7789C36.4126 13.2276 37.7939 14.8454 39.1529 16.6005C36.3965 16.474 33.6357 16.4736 30.8793 16.5986C32.2394 14.8598 33.6327 13.2444 35.0334 11.7789ZM20.6652 26.9369C19.7943 24.9345 19.0493 22.9656 18.4408 21.0642C20.4381 20.6309 22.568 20.2767 24.787 20.0079C23.3021 22.2535 21.9266 24.5665 20.6652 26.9369ZM24.8507 40.7533C22.5584 40.5053 20.3963 40.169 18.3996 39.7476C19.0177 37.8128 19.7792 35.8015 20.6686 33.7559C21.9473 36.151 23.3438 38.4865 24.8507 40.7533ZM35.1162 48.9802C33.6989 47.4973 32.2852 45.8572 30.9045 44.0932C33.6765 44.1987 36.4539 44.1989 39.2257 44.079C37.8625 45.8752 36.4861 47.5176 35.1162 48.9802ZM49.389 33.6518C50.3246 35.7196 51.1133 37.72 51.7398 39.6221C49.71 40.0713 47.5188 40.4329 45.21 40.7015C46.7017 38.4083 48.1014 36.0584 49.389 33.6518ZM41.4104 41.0529C37.1702 41.3467 32.9037 41.3434 28.6622 41.0769C26.2521 37.6635 24.1066 34.0737 22.2546 30.3469C24.0977 26.6278 26.2276 23.0449 28.6263 19.6369C32.8708 19.3258 37.1415 19.3249 41.3861 19.6387C43.7642 23.0466 45.8908 26.6201 47.7766 30.3056C45.9132 34.0228 43.7722 37.6129 41.4104 41.0529ZM50.9374 3.42206C55.3014 5.86259 53.3589 14.5303 52.4055 18.2994C49.5014 17.6496 46.3477 17.1661 43.046 16.8656C41.1224 14.2101 39.1295 11.7954 37.1289 9.70547C40.0622 6.96362 46.6156 1.00541 50.9374 3.42206Z" fill="#53C1DE"/>
</svg>
