<svg width="79" height="83" viewBox="0 0 79 83" fill="none" xmlns="http://www.w3.org/2000/svg">
<path d="M76.4133 22.6029H64.5401C63.1101 22.6029 61.9508 23.7651 61.9508 25.1923V47.6802C61.9508 49.1102 63.1101 50.2698 64.5401 50.2698H76.4133C77.8406 50.2698 79 49.1102 79 47.6802V25.1923C79 23.7651 77.8406 22.6029 76.4133 22.6029ZM76.2821 25.1923V45.2382H64.6554L64.5401 25.3235L76.2821 25.1923ZM69.1808 47.6135C69.1808 46.9038 69.759 46.32 70.4741 46.32C71.1918 46.32 71.77 46.9038 71.77 47.6135C71.77 48.3286 71.1918 48.9096 70.4741 48.9096C69.759 48.9096 69.1808 48.3286 69.1808 47.6135Z" fill="white"/>
<path d="M18.7045 37.7461V44.427H16.5515C15.0495 44.427 13.8336 45.6457 13.8336 47.1477C13.8336 48.6502 15.0495 49.8655 16.5515 49.8655H34.2704C35.7728 49.8655 36.9911 48.6502 36.9911 47.1477C36.9911 45.6457 35.7728 44.427 34.2704 44.427H32.1176V37.7461H45.7579C48.5508 37.7461 50.8217 35.4754 50.8217 32.6823V5.06361C50.8217 2.27081 48.5508 0 45.7579 0H5.06396C2.27081 0 0 2.27081 0 5.06361V32.6823C0 35.4754 2.27081 37.7461 5.06396 37.7461H18.7045ZM5.43866 5.43866H45.3832V32.3074H5.43866V5.43866Z" fill="white"/>
<path d="M7.08003 69.5692V46.3527V41.9211H3.00173V71.6097C3.00173 72.7344 3.91479 73.6475 5.03975 73.6475H18.7043V69.5692H17.767H7.08003Z" fill="white"/>
<path d="M58.5794 51.9941H28.9068C26.1004 51.9941 23.8162 54.2782 23.8162 57.0844V76.9377C23.8162 79.7439 26.1004 82.0279 28.9068 82.0279H58.5794C61.3857 82.0279 63.6697 79.7439 63.6697 76.9377V57.0844C63.6699 54.2782 61.3857 51.9941 58.5794 51.9941ZM27.3162 68.9152C26.2639 68.9152 25.4123 68.0662 25.4123 67.011C25.4123 65.9561 26.2639 65.1045 27.3162 65.1045C28.3658 65.1045 29.2228 65.9562 29.2228 67.011C29.2228 68.0662 28.3658 68.9152 27.3162 68.9152ZM59.5916 76.9379C59.5916 77.4947 59.1364 77.95 58.5794 77.95H30.6234V56.0724H58.5796C59.1364 56.0724 59.5917 56.5276 59.5917 57.0846V76.9379H59.5916Z" fill="white"/>
<path d="M71.438 59.7624V69.5685H67.8713H67.1296V73.6468H73.4787C74.6033 73.6468 75.5163 72.7338 75.5163 71.609V54.1552H71.438V59.7624Z" fill="white"/>
</svg>
