<svg width="50" height="50" viewBox="0 0 50 50" fill="none" xmlns="http://www.w3.org/2000/svg">
<path d="M18.5938 40.4688C23.5988 40.4688 27.6562 36.4113 27.6562 31.4063C27.6562 26.4012 23.5988 22.3438 18.5938 22.3438C13.5887 22.3438 9.53125 26.4012 9.53125 31.4063C9.53125 36.4113 13.5887 40.4688 18.5938 40.4688Z" stroke="white" stroke-width="2" stroke-miterlimit="10"/>
<path d="M6.09375 36.5625L10.3125 34.8438" stroke="white" stroke-width="2" stroke-miterlimit="10"/>
<path d="M26.875 27.9688L31.0937 26.25" stroke="white" stroke-width="2" stroke-miterlimit="10"/>
<path d="M13.4375 18.9062L15.1562 23.125" stroke="white" stroke-width="2" stroke-miterlimit="10"/>
<path d="M22.0312 39.6875L23.75 43.9063" stroke="white" stroke-width="2" stroke-miterlimit="10"/>
<path d="M6.09375 26.25L10.3125 27.9688" stroke="white" stroke-width="2" stroke-miterlimit="10"/>
<path d="M26.875 34.8438L31.0937 36.5625" stroke="white" stroke-width="2" stroke-miterlimit="10"/>
<path d="M23.75 18.9062L22.0312 23.125" stroke="white" stroke-width="2" stroke-miterlimit="10"/>
<path d="M15.1562 39.6875L13.4375 43.9063" stroke="white" stroke-width="2" stroke-miterlimit="10"/>
<path d="M35.1563 22.1875C39.2121 22.1875 42.5 18.8996 42.5 14.8437C42.5 10.7879 39.2121 7.5 35.1563 7.5C31.1004 7.5 27.8125 10.7879 27.8125 14.8437C27.8125 18.8996 31.1004 22.1875 35.1563 22.1875Z" stroke="white" stroke-width="2" stroke-miterlimit="10"/>
<path d="M27.3438 22.6562L30 20" stroke="white" stroke-width="2" stroke-miterlimit="10"/>
<path d="M40.3125 9.6875L42.8125 7.1875" stroke="white" stroke-width="2" stroke-miterlimit="10"/>
<path d="M27.3438 7.1875L30 9.6875" stroke="white" stroke-width="2" stroke-miterlimit="10"/>
<path d="M40.3125 20L42.8125 22.6562" stroke="white" stroke-width="2" stroke-miterlimit="10"/>
<path d="M24.2188 14.8438H27.8125" stroke="white" stroke-width="2" stroke-miterlimit="10"/>
<path d="M42.5 14.8438H46.0937" stroke="white" stroke-width="2" stroke-miterlimit="10"/>
<path d="M35.1562 3.90625V7.5" stroke="white" stroke-width="2" stroke-miterlimit="10"/>
<path d="M35.1562 22.1875V25.7813" stroke="white" stroke-width="2" stroke-miterlimit="10"/>
</svg>
