<svg width="88" height="53" viewBox="0 0 88 53" fill="none" xmlns="http://www.w3.org/2000/svg">
<path d="M22.125 17.8125C25.0417 6.14583 32.3333 0.3125 44 0.3125C61.5 0.3125 63.6875 13.4375 72.4375 15.625C78.2708 17.0833 83.375 14.8958 87.75 9.0625C84.8333 20.7292 77.5417 26.5625 65.875 26.5625C48.375 26.5625 46.1875 13.4375 37.4375 11.25C31.6042 9.79167 26.5 11.9792 22.125 17.8125ZM0.25 44.0625C3.16667 32.3958 10.4583 26.5625 22.125 26.5625C39.625 26.5625 41.8125 39.6875 50.5625 41.875C56.3958 43.3333 61.5 41.1458 65.875 35.3125C62.9583 46.9792 55.6667 52.8125 44 52.8125C26.5 52.8125 24.3125 39.6875 15.5625 37.5C9.72917 36.0417 4.625 38.2292 0.25 44.0625Z" fill="#44A8B3"/>
</svg>
