<svg width="30" height="30" viewBox="0 0 30 30" fill="none" xmlns="http://www.w3.org/2000/svg">
<path d="M24.915 5.02792C22.3931 2.50604 18.9094 0.946045 15.0609 0.946045C7.365 0.946045 1.125 7.18511 1.125 14.882C1.125 17.4432 1.81594 19.8423 3.02062 21.9048L2.985 21.8392L1.00781 29.0598L8.39438 27.122C10.3172 28.1898 12.6112 28.8179 15.0525 28.8179H15.0581C22.7541 28.8151 28.9912 22.5751 28.9912 14.8792C28.9912 11.0326 27.4331 7.55073 24.9141 5.02886L24.915 5.02792ZM15.0581 26.4639H15.0534C12.8794 26.4639 10.8441 25.8639 9.10687 24.8204L9.15938 24.8495L8.73656 24.5992L4.35375 25.7495L5.52281 21.4754L5.24719 21.0376C4.13625 19.292 3.47625 17.1648 3.47625 14.8829C3.47625 8.4873 8.66156 3.30198 15.0572 3.30198C21.4528 3.30198 26.6381 8.4873 26.6381 14.8829C26.6381 21.2785 21.4547 26.4639 15.0581 26.4639ZM21.4106 17.791C21.0628 17.6167 19.3509 16.7757 19.0322 16.6585C18.7125 16.5423 18.48 16.4851 18.2475 16.8339C18.0169 17.1817 17.3494 17.9654 17.1459 18.1979C16.9434 18.4314 16.7391 18.4595 16.3912 18.286C15.3131 17.8492 14.3869 17.267 13.5816 16.5498L13.5909 16.5582C12.8419 15.8645 12.1997 15.0704 11.6813 14.1948L11.655 14.146C11.4525 13.7982 11.6334 13.6098 11.8069 13.4364C11.9634 13.2807 12.1556 13.0295 12.3291 12.827C12.4659 12.6592 12.5831 12.467 12.6722 12.2607L12.6778 12.2448C12.7181 12.1632 12.7416 12.0685 12.7416 11.9673C12.7416 11.8445 12.7069 11.7301 12.6469 11.6326L12.6488 11.6354C12.5606 11.461 11.865 9.7473 11.5753 9.0498C11.2922 8.37105 11.0044 8.46386 10.7916 8.45261C10.5891 8.44323 10.3566 8.44136 10.1241 8.44136C9.75375 8.45073 9.42469 8.61761 9.19781 8.87542L9.19688 8.8773C8.445 9.59073 7.97813 10.5967 7.97813 11.7114C7.97813 11.7357 7.97813 11.761 7.97906 11.7854V11.7817C8.10187 13.157 8.6175 14.3917 9.41063 15.3976L9.39937 15.3835C10.9031 17.6139 12.9075 19.3979 15.2597 20.5998L15.3478 20.6401C15.8616 20.8726 16.5197 21.121 17.1928 21.3339L17.3325 21.3723C17.7469 21.5035 18.2241 21.5795 18.7191 21.5795C19.0031 21.5795 19.2825 21.5542 19.5525 21.5064L19.5234 21.5101C20.5256 21.301 21.3572 20.6964 21.8644 19.8704L21.8728 19.8545C22.0275 19.5114 22.1175 19.111 22.1175 18.6901C22.1175 18.5167 22.1025 18.347 22.0734 18.182L22.0763 18.1998C21.99 18.0545 21.7575 17.9682 21.4088 17.7929L21.4106 17.791Z" fill="black"/>
</svg>
